<svg width="60" height="46" viewBox="0 0 60 46" fill="none" xmlns="http://www.w3.org/2000/svg">
<g clip-path="url(#clip0_21_1596)">
<path d="M11.1195 45.6271V42.6563C11.1195 41.5173 10.4139 40.7747 9.20454 40.7747C8.59997 40.7747 7.9449 40.9728 7.49136 41.6165C7.1388 41.0718 6.63499 40.7747 5.87917 40.7747C5.37513 40.7747 4.87155 40.9231 4.46827 41.4679V40.8738H3.41016V45.6271H4.46827V43.0027C4.46827 42.1612 4.92181 41.7649 5.62738 41.7649C6.33248 41.7649 6.68549 42.2106 6.68549 43.0027V45.6271H7.7436V43.0027C7.7436 42.1612 8.24718 41.7649 8.90225 41.7649C9.60781 41.7649 9.96037 42.2106 9.96037 43.0027V45.6271H11.1195ZM26.7894 40.8738H25.0765V39.4379H24.0184V40.8738H23.061V41.8143H24.0181V43.9931C24.0181 45.0826 24.4717 45.7261 25.681 45.7261C26.1346 45.7261 26.6382 45.5777 26.9912 45.3796L26.6887 44.4882C26.3864 44.6863 26.0338 44.7359 25.7818 44.7359C25.278 44.7359 25.0765 44.4388 25.0765 43.9435V41.8143H26.7894V40.8738ZM35.7584 40.7745C35.1538 40.7745 34.7508 41.0718 34.4987 41.4679V40.8738H33.4406V45.6271H34.4987V42.9533C34.4987 42.1612 34.8513 41.7155 35.5064 41.7155C35.7079 41.7155 35.9599 41.7651 36.1614 41.8145L36.4637 40.8244C36.2622 40.7747 35.9599 40.7747 35.7584 40.7747V40.7745ZM22.2044 41.2698C21.7004 40.9231 20.995 40.7747 20.2392 40.7747C19.0301 40.7747 18.224 41.3688 18.224 42.3096C18.224 43.102 18.8286 43.5475 19.8867 43.6961L20.3905 43.7457C20.9448 43.8445 21.2471 43.9932 21.2471 44.2408C21.2471 44.5873 20.844 44.8349 20.1385 44.8349C19.4331 44.8349 18.8788 44.5873 18.526 44.3398L18.0222 45.132C18.5765 45.528 19.3324 45.7261 20.088 45.7261C21.4989 45.7261 22.3052 45.0826 22.3052 44.1912C22.3052 43.3494 21.6501 42.9037 20.6423 42.7553L20.1385 42.7057C19.6849 42.6561 19.3324 42.5573 19.3324 42.2602C19.3324 41.9136 19.6849 41.7155 20.2392 41.7155C20.844 41.7155 21.4486 41.9629 21.7509 42.1116L22.2044 41.2698ZM50.3202 40.7747C49.7154 40.7747 49.3123 41.0718 49.0603 41.4679V40.8738H48.0022V45.6271H49.0603V42.9533C49.0603 42.1612 49.4131 41.7155 50.0679 41.7155C50.2697 41.7155 50.5217 41.7651 50.7232 41.8145L51.0255 40.8244C50.824 40.7747 50.5217 40.7747 50.3202 40.7747ZM36.8165 43.2504C36.8165 44.6863 37.8241 45.7261 39.3863 45.7261C40.0916 45.7261 40.5954 45.5777 41.0992 45.1816L40.5954 44.3398C40.1924 44.6369 39.7893 44.7853 39.3358 44.7853C38.4792 44.7853 37.8746 44.1912 37.8746 43.2504C37.8746 42.3592 38.4792 41.7649 39.3358 41.7155C39.7893 41.7155 40.1924 41.8639 40.5954 42.1612L41.0992 41.3194C40.5954 40.9231 40.0916 40.7747 39.3863 40.7747C37.8241 40.7747 36.8165 41.8145 36.8165 43.2504ZM46.5915 43.2504V40.8738H45.5334V41.4679C45.1806 41.0224 44.6768 40.7747 44.0218 40.7747C42.6614 40.7747 41.6033 41.8145 41.6033 43.2504C41.6033 44.6863 42.6614 45.7261 44.0218 45.7261C44.7271 45.7261 45.2311 45.4786 45.5334 45.0329V45.6271H46.5915V43.2504ZM42.7116 43.2504C42.7116 42.4086 43.2659 41.7155 44.1728 41.7155C45.0294 41.7155 45.6342 42.3592 45.6342 43.2504C45.6342 44.0922 45.0294 44.7853 44.1728 44.7853C43.2659 44.7357 42.7116 44.0922 42.7116 43.2504ZM30.0648 40.7747C28.6539 40.7747 27.646 41.7649 27.646 43.2504C27.646 44.7359 28.6536 45.7261 30.115 45.7261C30.8204 45.7261 31.5259 45.528 32.0802 45.0826L31.5762 44.3398C31.1731 44.6369 30.6693 44.8349 30.1655 44.8349C29.5105 44.8349 28.8554 44.5379 28.7041 43.6959H32.2818V43.3C32.3323 41.7649 31.4254 40.7747 30.0648 40.7747ZM30.0648 41.6659C30.7196 41.6659 31.1734 42.0622 31.2739 42.8049H28.7546C28.8554 42.1612 29.3089 41.6659 30.0648 41.6659ZM56.3161 43.2504V38.9922H55.258V41.4679C54.9052 41.0224 54.4014 40.7747 53.7463 40.7747C52.3859 40.7747 51.3278 41.8145 51.3278 43.2504C51.3278 44.6863 52.3859 45.7261 53.7463 45.7261C54.4519 45.7261 54.9557 45.4786 55.258 45.0329V45.6271H56.3161V43.2504ZM52.4364 43.2504C52.4364 42.4086 52.9905 41.7155 53.8976 41.7155C54.7542 41.7155 55.3587 42.3592 55.3587 43.2504C55.3587 44.0922 54.7542 44.7853 53.8976 44.7853C52.9905 44.7357 52.4364 44.0922 52.4364 43.2504ZM17.0649 43.2504V40.8738H16.0068V41.4679C15.654 41.0224 15.1502 40.7747 14.4951 40.7747C13.1347 40.7747 12.0766 41.8145 12.0766 43.2504C12.0766 44.6863 13.1347 45.7261 14.4951 45.7261C15.2007 45.7261 15.7045 45.4786 16.0068 45.0329V45.6271H17.0649V43.2504ZM13.1347 43.2504C13.1347 42.4086 13.689 41.7155 14.5959 41.7155C15.4525 41.7155 16.0573 42.3592 16.0573 43.2504C16.0573 44.0922 15.4525 44.7853 14.5959 44.7853C13.689 44.7357 13.1347 44.0922 13.1347 43.2504Z" fill="white"/>
<path d="M21.8516 4.77783H37.7233V32.803H21.8516V4.77783Z" fill="#FF5F00"/>
<path d="M22.8597 18.7906C22.8597 13.0965 25.5805 8.04589 29.7624 4.77786C26.6891 2.4012 22.8094 0.965332 18.5769 0.965332C8.54963 0.965332 0.4375 8.93705 0.4375 18.7906C0.4375 28.6438 8.54963 36.6158 18.5767 36.6158C22.8092 36.6158 26.6888 35.1799 29.7624 32.803C25.5805 29.5846 22.8597 24.4847 22.8597 18.7906Z" fill="#EB001B"/>
<path d="M59.1374 18.7906C59.1374 28.6438 51.0253 36.6158 40.9982 36.6158C36.7658 36.6158 32.8861 35.1799 29.8125 32.803C34.045 29.5352 36.7155 24.4847 36.7155 18.7906C36.7155 13.0965 33.9945 8.04589 29.8125 4.77786C32.8859 2.4012 36.7658 0.965332 40.9982 0.965332C51.0253 0.965332 59.1374 8.98668 59.1374 18.7906Z" fill="#F79E1B"/>
</g>
<defs>
<clipPath id="clip0_21_1596">
<rect width="58.7586" height="44.8851" fill="white" transform="translate(0.4375 0.965332)"/>
</clipPath>
</defs>
</svg>
