<svg width="46" height="46" viewBox="0 0 46 46" fill="none" xmlns="http://www.w3.org/2000/svg">
<path d="M27.1694 39.6752C30.4597 38.7488 33.143 36.9363 35.2194 34.2376C37.2958 31.5389 38.334 28.432 38.334 24.9169C38.334 23.096 38.0305 21.3627 37.4236 19.7169C36.8166 18.0712 35.9541 16.5621 34.8361 15.1898C34.4847 14.8064 34.0534 14.6065 33.5423 14.5899C33.0312 14.5733 32.568 14.7732 32.1527 15.1898C31.8013 15.5412 31.6173 15.9724 31.6007 16.4835C31.5841 16.9946 31.7522 17.4738 32.1048 17.921C32.8715 18.9113 33.4625 19.9974 33.8777 21.1794C34.293 22.3613 34.5007 23.6071 34.5007 24.9169C34.5007 27.5044 33.7417 29.8127 32.2237 31.8418C30.7057 33.8709 28.7494 35.2522 26.3548 35.9856C25.9395 36.1134 25.5965 36.353 25.3256 36.7044C25.0547 37.0558 24.9186 37.4391 24.9173 37.8544C24.9173 38.4933 25.1409 38.9967 25.5882 39.3647C26.0354 39.7327 26.5625 39.8362 27.1694 39.6752ZM18.8319 39.6752C19.4388 39.8349 19.9659 39.7231 20.4132 39.3398C20.8604 38.9564 21.084 38.4453 21.084 37.8064C21.084 37.4231 20.9479 37.0558 20.6757 36.7044C20.4036 36.353 20.0605 36.1134 19.6465 35.9856C17.2507 35.2189 15.2937 33.8294 13.7757 31.8169C12.2577 29.8044 11.4994 27.5044 11.5007 24.9169C11.5007 21.7224 12.6187 19.0071 14.8548 16.771C17.0909 14.5349 19.8062 13.4169 23.0007 13.4169H23.1444L22.3777 14.1835C22.0263 14.5349 21.8507 14.9821 21.8507 15.5252C21.8507 16.0683 22.0263 16.5155 22.3777 16.8669C22.7291 17.2183 23.1763 17.3939 23.7194 17.3939C24.2625 17.3939 24.7097 17.2183 25.0611 16.8669L29.0861 12.8419C29.2777 12.6502 29.4132 12.4426 29.4924 12.2189C29.5716 11.9953 29.6119 11.7558 29.6132 11.5002C29.6132 11.2446 29.5729 11.0051 29.4924 10.7814C29.4119 10.5578 29.2765 10.3502 29.0861 10.1585L25.0611 6.13353C24.7097 5.78214 24.2625 5.60645 23.7194 5.60645C23.1763 5.60645 22.7291 5.78214 22.3777 6.13353C22.0263 6.48492 21.8507 6.93214 21.8507 7.4752C21.8507 8.01825 22.0263 8.46547 22.3777 8.81686L23.1444 9.58353H23.0007C18.7201 9.58353 15.0944 11.0689 12.1236 14.0398C9.15274 17.0106 7.66732 20.6363 7.66732 24.9169C7.66732 28.3988 8.70551 31.4974 10.7819 34.2127C12.8583 36.928 15.5416 38.7488 18.8319 39.6752Z" fill="#FAA05F"/>
</svg>
