<svg width="20" height="20" viewBox="0 0 20 20" fill="none" xmlns="http://www.w3.org/2000/svg">
<g clip-path="url(#clip0_1_3454)">
<path d="M18.125 5.00002H2.975C2.79405 5.03504 2.6076 5.02961 2.42899 4.98412C2.25039 4.93863 2.08405 4.85421 1.9419 4.73691C1.79975 4.6196 1.68529 4.47231 1.60673 4.30559C1.52818 4.13886 1.48746 3.95683 1.4875 3.77252V3.74877L17.5 3.12502V1.63752C17.5261 1.41558 17.5014 1.19062 17.4279 0.979608C17.3543 0.7686 17.2337 0.577068 17.0753 0.419475C16.9169 0.261881 16.7247 0.142348 16.5133 0.0699002C16.3019 -0.00254723 16.0768 -0.0260145 15.855 0.00127069L1.6375 2.31252C1.15766 2.48965 0.743551 2.80942 0.450818 3.22886C0.158086 3.64829 0.00076455 4.14729 0 4.65877L0 18.1238C0 18.6211 0.197544 19.098 0.549175 19.4496C0.900805 19.8012 1.37772 19.9988 1.875 19.9988H18.125C18.6223 19.9988 19.0992 19.8012 19.4508 19.4496C19.8025 19.098 20 18.6211 20 18.1238V6.86127L20.0012 6.81002C20.0012 6.32932 19.8103 5.8683 19.4704 5.52839C19.1305 5.18848 18.6695 4.99752 18.1887 4.99752L18.1225 4.99877L18.125 5.00002ZM16.25 13.75C15.7526 13.7499 15.2755 13.5521 14.9239 13.2002C14.5723 12.8484 14.3748 12.3712 14.375 11.8738C14.3752 11.3763 14.5729 10.8993 14.9248 10.5477C15.2767 10.1961 15.7538 9.99861 16.2513 9.99877C16.4976 9.99885 16.7414 10.0474 16.969 10.1418C17.1965 10.2361 17.4032 10.3743 17.5773 10.5486C17.7514 10.7228 17.8895 10.9296 17.9837 11.1572C18.0779 11.3848 18.1263 11.6287 18.1263 11.875C18.1262 12.1213 18.0776 12.3652 17.9832 12.5927C17.8889 12.8203 17.7507 13.027 17.5765 13.2011C17.4022 13.3752 17.1954 13.5133 16.9678 13.6075C16.7402 13.7017 16.4963 13.7501 16.25 13.75V13.75Z" fill="#333333"/>
</g>
<defs>
<clipPath id="clip0_1_3454">
<rect width="20" height="20" fill="white"/>
</clipPath>
</defs>
</svg>
