<svg width="73" height="72" viewBox="0 0 73 72" fill="none" xmlns="http://www.w3.org/2000/svg">
<g clip-path="url(#clip0_21_1594)">
<path d="M67.0103 47.275L66.34 43.9087H58.8173L57.6203 47.2511L51.5908 47.2631C55.4659 37.9479 58.3445 31.0506 60.2207 26.5651C60.7114 25.3921 61.5822 24.7936 62.8659 24.8026C63.8474 24.8116 65.4483 24.8116 67.6716 24.8056L72.3337 47.2661L67.0103 47.275ZM60.5109 39.2975H65.3585L63.5482 30.8591L60.5109 39.2975ZM21.6435 24.7996L27.706 24.8056L18.334 47.278L12.1967 47.2721C10.6534 41.3362 9.12927 35.3954 7.62438 29.4497C7.32515 28.2647 6.73266 27.4358 5.59258 27.0439C3.9089 26.4795 2.21705 25.9398 0.517578 25.425L0.517578 24.8056H10.2038C11.8795 24.8056 12.858 25.6165 13.1722 27.2802C13.4894 28.947 14.2853 33.1931 15.566 40.0096L21.6435 24.7996ZM36.0366 24.8056L31.2459 47.275L25.4737 47.2661L30.2614 24.7996L36.0366 24.8056ZM47.7367 24.3896C49.4632 24.3896 51.6387 24.9283 52.8895 25.425L51.8781 30.0811C50.7469 29.6262 48.8857 29.0128 47.3207 29.0338C45.0465 29.0727 43.6402 30.0272 43.6402 30.9429C43.6402 32.4331 46.0819 33.1841 48.5955 34.812C51.4621 36.6672 51.8421 38.3339 51.8062 40.1473C51.7673 43.9027 48.5955 47.6102 41.9046 47.6102C38.8524 47.5653 37.7512 47.311 35.2616 46.4252L36.3149 41.5657C38.8494 42.625 39.9237 42.9631 42.0901 42.9631C44.074 42.9631 45.7767 42.1611 45.7916 40.7637C45.8036 39.7703 45.1932 39.2765 42.9669 38.0497C40.7406 36.8198 37.6166 35.1202 37.6585 31.6999C37.7093 27.3251 41.8537 24.3896 47.7367 24.3896Z" fill="white"/>
</g>
<defs>
<clipPath id="clip0_21_1594">
<rect width="71.8161" height="71.8161" fill="white" transform="translate(0.517578 0.0917969)"/>
</clipPath>
</defs>
</svg>
