<svg width="200" height="200" viewBox="0 0 200 200" fill="none" xmlns="http://www.w3.org/2000/svg">
<path fill-rule="evenodd" clip-rule="evenodd" d="M100 6C87.6558 5.99999 75.4324 8.43137 64.0278 13.1553C52.6232 17.8792 42.2607 24.8032 33.532 33.5319C24.8033 42.2606 17.8793 52.6231 13.1553 64.0277C8.43139 75.4323 6 87.6557 6 100C6 112.344 8.43138 124.568 13.1553 135.972C17.8793 147.377 24.8032 157.739 33.532 166.468C42.2607 175.197 52.6231 182.121 64.0277 186.845C75.4324 191.569 87.6557 194 100 194V200C86.8678 200 73.8642 197.413 61.7316 192.388C49.5991 187.362 38.5752 179.997 29.2893 170.711C20.0035 161.425 12.6375 150.401 7.61204 138.268C2.58657 126.136 -3.49626e-06 113.132 0 100C3.49628e-06 86.8678 2.58658 73.8642 7.61206 61.7316C12.6375 49.5991 20.0035 38.5752 29.2893 29.2893C38.5752 20.0034 49.5991 12.6375 61.7317 7.61203C73.8643 2.58656 86.8679 -6.41849e-06 100 0V6ZM135.972 13.1553C124.568 8.43138 112.344 6 100 6L100 0C113.132 -3.70497e-06 126.136 2.58657 138.268 7.61204C150.401 12.6375 161.425 20.0035 170.711 29.2893C179.997 38.5752 187.362 49.5991 192.388 61.7316C197.413 73.8642 200 86.8678 200 100C200 113.132 197.413 126.136 192.388 138.268C187.362 150.401 179.997 161.425 170.711 170.711C161.425 179.997 150.401 187.362 138.268 192.388C126.136 197.413 113.132 200 100 200V194C112.344 194 124.568 191.569 135.972 186.845C147.377 182.121 157.739 175.197 166.468 166.468C175.197 157.739 182.121 147.377 186.845 135.972C191.569 124.568 194 112.344 194 100C194 87.6557 191.569 75.4324 186.845 64.0277C182.121 52.6231 175.197 42.2607 166.468 33.5319C157.739 24.8032 147.377 17.8793 135.972 13.1553Z" fill="#363745"/>
</svg>
